<svg width="700" height="700" viewBox="0 0 700 700" fill="none" xmlns="http://www.w3.org/2000/svg">
<g filter="url(#filter0_ii_2102_17)">
<rect width="700" height="700" rx="167" fill="url(#paint0_linear_2102_17)"/>
</g>
<g filter="url(#filter1_dii_2102_17)">
<path d="M475.066 232.156L336.531 149.14C331.794 146.301 325.654 147.841 322.817 152.58L239.837 291.184C237 295.922 238.541 302.065 243.278 304.904L381.814 387.92C386.551 390.759 392.691 389.219 395.528 384.48L478.508 245.876C481.344 241.138 479.804 234.995 475.066 232.156Z" fill="url(#paint1_linear_2102_17)"/>
<path d="M243.003 339.934H242.973C189.416 339.934 146 383.37 146 436.952V436.982C146 490.564 189.416 534 242.973 534H243.003C296.559 534 339.975 490.564 339.975 436.982V436.952C339.975 383.37 296.559 339.934 243.003 339.934Z" fill="url(#paint2_linear_2102_17)"/>
<path d="M450.535 357.982C446.657 351.396 437.125 351.418 433.277 358.021L339.93 518.217C336.053 524.87 340.834 533.224 348.534 533.252L536.596 533.936C544.348 533.964 549.183 525.543 545.25 518.863L450.535 357.982Z" fill="url(#paint3_linear_2102_17)"/>
</g>
<defs>
<filter id="filter0_ii_2102_17" x="0" y="-40" width="700" height="780" filterUnits="userSpaceOnUse" color-interpolation-filters="sRGB">
<feFlood flood-opacity="0" result="BackgroundImageFix"/>
<feBlend mode="normal" in="SourceGraphic" in2="BackgroundImageFix" result="shape"/>
<feColorMatrix in="SourceAlpha" type="matrix" values="0 0 0 0 0 0 0 0 0 0 0 0 0 0 0 0 0 0 127 0" result="hardAlpha"/>
<feOffset dy="40"/>
<feGaussianBlur stdDeviation="24"/>
<feComposite in2="hardAlpha" operator="arithmetic" k2="-1" k3="1"/>
<feColorMatrix type="matrix" values="0 0 0 0 0.629695 0 0 0 0 0.629695 0 0 0 0 0.629695 0 0 0 0.88 0"/>
<feBlend mode="normal" in2="shape" result="effect1_innerShadow_2102_17"/>
<feColorMatrix in="SourceAlpha" type="matrix" values="0 0 0 0 0 0 0 0 0 0 0 0 0 0 0 0 0 0 127 0" result="hardAlpha"/>
<feOffset dy="-40"/>
<feGaussianBlur stdDeviation="25"/>
<feComposite in2="hardAlpha" operator="arithmetic" k2="-1" k3="1"/>
<feColorMatrix type="matrix" values="0 0 0 0 0 0 0 0 0 0 0 0 0 0 0 0 0 0 0.7 0"/>
<feBlend mode="normal" in2="effect1_innerShadow_2102_17" result="effect2_innerShadow_2102_17"/>
</filter>
<filter id="filter1_dii_2102_17" x="101" y="138.717" width="490.648" height="480.283" filterUnits="userSpaceOnUse" color-interpolation-filters="sRGB">
<feFlood flood-opacity="0" result="BackgroundImageFix"/>
<feColorMatrix in="SourceAlpha" type="matrix" values="0 0 0 0 0 0 0 0 0 0 0 0 0 0 0 0 0 0 127 0" result="hardAlpha"/>
<feOffset dy="40"/>
<feGaussianBlur stdDeviation="22.5"/>
<feComposite in2="hardAlpha" operator="out"/>
<feColorMatrix type="matrix" values="0 0 0 0 0.0467811 0 0 0 0 0.0467811 0 0 0 0 0.0467811 0 0 0 1 0"/>
<feBlend mode="normal" in2="BackgroundImageFix" result="effect1_dropShadow_2102_17"/>
<feBlend mode="normal" in="SourceGraphic" in2="effect1_dropShadow_2102_17" result="shape"/>
<feColorMatrix in="SourceAlpha" type="matrix" values="0 0 0 0 0 0 0 0 0 0 0 0 0 0 0 0 0 0 127 0" result="hardAlpha"/>
<feOffset dy="9"/>
<feGaussianBlur stdDeviation="3"/>
<feComposite in2="hardAlpha" operator="arithmetic" k2="-1" k3="1"/>
<feColorMatrix type="matrix" values="0 0 0 0 1 0 0 0 0 1 0 0 0 0 1 0 0 0 1 0"/>
<feBlend mode="normal" in2="shape" result="effect2_innerShadow_2102_17"/>
<feColorMatrix in="SourceAlpha" type="matrix" values="0 0 0 0 0 0 0 0 0 0 0 0 0 0 0 0 0 0 127 0" result="hardAlpha"/>
<feOffset dy="-9"/>
<feGaussianBlur stdDeviation="5"/>
<feComposite in2="hardAlpha" operator="arithmetic" k2="-1" k3="1"/>
<feColorMatrix type="matrix" values="0 0 0 0 0.112361 0 0 0 0 0.112361 0 0 0 0 0.112361 0 0 0 0.63 0"/>
<feBlend mode="normal" in2="effect2_innerShadow_2102_17" result="effect3_innerShadow_2102_17"/>
</filter>
<linearGradient id="paint0_linear_2102_17" x1="350" y1="0" x2="350" y2="700" gradientUnits="userSpaceOnUse">
<stop stop-color="#2A2A2A"/>
<stop offset="0.802885" stop-color="#333333"/>
</linearGradient>
<linearGradient id="paint1_linear_2102_17" x1="405.799" y1="190.648" x2="284.95" y2="400.883" gradientUnits="userSpaceOnUse">
<stop stop-color="#DDEFF4"/>
<stop offset="1" stop-color="white"/>
</linearGradient>
<linearGradient id="paint2_linear_2102_17" x1="242.988" y1="339.934" x2="247.695" y2="599.108" gradientUnits="userSpaceOnUse">
<stop stop-color="#DDEFF4"/>
<stop offset="1" stop-color="white"/>
</linearGradient>
<linearGradient id="paint3_linear_2102_17" x1="442.684" y1="343.269" x2="446.64" y2="598.012" gradientUnits="userSpaceOnUse">
<stop stop-color="#DDEFF4"/>
<stop offset="1" stop-color="white"/>
</linearGradient>
</defs>
</svg>
